<?xml version="1.0" encoding="UTF-8" standalone="no"?>
<svg
   xmlns:dc="http://purl.org/dc/elements/1.1/"
   xmlns:cc="http://creativecommons.org/ns#"
   xmlns:rdf="http://www.w3.org/1999/02/22-rdf-syntax-ns#"
   xmlns:svg="http://www.w3.org/2000/svg"
   xmlns="http://www.w3.org/2000/svg"
   id="svg6"
   viewBox="0 0 1024.000000 1024.000000"
   height="1365.333"
   width="1365.333"
   version="1">
  <metadata
     id="metadata12">
    <rdf:RDF>
      <cc:Work
         rdf:about="">
        <dc:format>image/svg+xml</dc:format>
        <dc:type
           rdf:resource="http://purl.org/dc/dcmitype/StillImage" />
        <dc:title></dc:title>
      </cc:Work>
    </rdf:RDF>
  </metadata>
  <defs
     id="defs10" />
  <g
     id="logo-logo"
     transform="matrix(3.534237,0,0,3.5350081,537.8813,524.15775)">
    <g
       id="g11"
       transform="matrix(0.88243365,0,0,-0.88243365,6.3072482e-5,3.9390182e-4)">
      <path
         id="path9"
         d="m 0,0 c -3.289,-4.181 -7.28,-6.933 -11.972,-8.26 -0.334,-0.094 -0.688,-0.178 -1.035,-0.265 -4.52,-1.144 -10.081,-1.724 -16.711,-1.724 h -7.695 -4.578 c -4.092,0 -6.597,0.221 -7.52,0.663 -0.924,0.441 -1.585,1.225 -1.987,2.352 -0.319,0.882 -0.521,3.897 -0.6,9.043 v 36.413 h 14.685 7.094 c 7.14,0 12.91,-0.495 17.312,-1.486 1.483,-0.333 2.811,-0.721 3.983,-1.167 4.653,-1.768 8.142,-4.382 10.469,-7.837 C 3.77,24.275 4.934,20.055 4.934,15.072 4.934,9.203 3.289,4.179 0,0 m -37.413,103.936 h 3.763 c 9.382,0 16.262,-0.504 20.643,-1.511 0.649,-0.149 1.244,-0.308 1.783,-0.479 4.18,-1.326 7.374,-3.557 9.586,-6.692 2.21,-3.135 3.317,-6.914 3.317,-11.334 0,-4.261 -1.167,-8.018 -3.498,-11.274 -2.332,-3.255 -5.808,-5.688 -10.429,-7.294 -0.244,-0.086 -0.5,-0.167 -0.759,-0.248 -4.631,-1.443 -11.508,-2.164 -20.643,-2.164 h -3.763 -14.685 v 40.996 z M 43.278,30.928 c -3.534,6.068 -8.315,10.791 -14.341,14.167 -4.178,2.411 -10.203,4.621 -18.077,6.632 7.338,2.49 13.245,5.646 17.722,9.465 4.476,3.817 7.902,8.218 10.282,13.203 2.378,4.982 3.569,10.249 3.569,15.795 0,7.636 -2.249,14.65 -6.746,21.04 -4.5,6.391 -10.924,11.293 -19.278,14.71 -7.367,3.013 -17.175,4.696 -29.416,5.051 v 21.411 h -24.406 v -21.337 h -14.685 v 21.337 h -24.406 v -21.337 h -37.087 v -23.271 h 6.632 c 4.419,0 7.415,-0.403 8.982,-1.206 1.568,-0.804 2.671,-1.889 3.316,-3.255 0.642,-1.368 0.965,-4.543 0.965,-9.526 V 0 c 0,-4.904 -0.323,-8.06 -0.965,-9.466 -0.645,-1.406 -1.748,-2.492 -3.316,-3.255 -1.567,-0.764 -4.563,-1.145 -8.982,-1.145 h -6.632 v -23.271 h 37.087 v -21.338 h 24.406 v 21.338 h 14.685 v -21.338 h 24.406 v 21.662 c 12.916,0.702 23.159,2.56 30.707,5.584 9.832,3.938 17.438,9.665 22.815,17.182 5.377,7.515 8.066,15.734 8.066,24.657 0,7.476 -1.768,14.247 -5.303,20.318"
         transform="translate(32.505,-46.9635)"
         style="opacity:1;fill:#f79320;fill-rule:nonzero;stroke:none;stroke-width:1;stroke-linecap:butt;stroke-linejoin:miter;stroke-miterlimit:4;stroke-dasharray:none;stroke-dashoffset:0;paint-order:stroke" />
    </g>
    <g
       id="g15"
       transform="matrix(0.88243365,0,0,-0.88243365,28.470108,52.103706)">
      <path
         id="path13"
         d="m 0,0 c -0.659,3.661 -1.536,7.089 -2.659,10.249 -2.621,7.376 -6.358,13.292 -11.21,17.743 -4.85,4.452 -10.542,7.432 -17.076,8.944 -8.848,2.048 -17.334,1.348 -25.456,-2.1 -8.124,-3.447 -16.146,-8.865 -24.069,-16.24 -3.654,-3.407 -7.347,-7.188 -11.074,-11.308 7.454,-3.746 13.899,-8.95 18.713,-16.626 0.139,-0.189 0.272,-0.389 0.396,-0.61 0.117,-0.192 0.216,-0.384 0.305,-0.574 9.823,-18.181 6.337,-40.624 -7.89,-55.519 -12.656,-13.251 -30.394,-17.548 -47.994,-19.063 v -16.858 c 0,-2.804 -2.377,-5.175 -5.174,-5.175 h -24.407 c -2.804,0 -5.175,2.378 -5.175,5.175 v 16.163 h -4.335 v -16.163 c 0,-2.804 -2.377,-5.175 -5.175,-5.175 h -24.407 c -0.073,0 -0.145,0.009 -0.218,0.012 -1.97,-1.098 -3.947,-2.143 -5.932,-3.12 -12.155,-5.985 -24.871,-9.704 -38.141,-11.205 15.607,-10.729 33.686,-18.929 53.848,-23.932 85.133,-18.273 162.495,30.184 183.382,114.403 l -0.037,0.01 C -1.53,-20.497 -0.293,-10.146 0,0"
         transform="translate(120.489,55.568819)"
         style="opacity:1;fill:#69bd45;fill-rule:nonzero;stroke:none;stroke-width:1;stroke-linecap:butt;stroke-linejoin:miter;stroke-miterlimit:4;stroke-dasharray:none;stroke-dashoffset:0;paint-order:stroke" />
    </g>
    <g
       id="g19"
       transform="matrix(0.88243365,0,0,-0.88243365,-38.091686,-61.377541)">
      <path
         id="path17"
         d="m 0,0 c 4.757,-4.877 10.608,-8.113 17.563,-9.722 7.584,-1.755 14.84,-1.329 21.771,1.287 6.931,2.613 13.936,6.987 21.018,13.119 2.568,2.225 5.173,4.669 7.812,7.317 v 10.748 24.395 c 0,2.856 0.639,6.519 -0.322,9.079 -1.425,3.798 -10.719,2.237 -14.398,2.237 -2.804,0 -5.175,2.377 -5.175,5.175 v 23.271 c 0,2.803 2.377,5.175 5.175,5.175 h 31.912 v 16.162 c 0,2.804 2.377,5.174 5.175,5.174 h 24.407 c 2.803,0 5.174,-2.377 5.174,-5.174 V 92.081 h 4.335 v 16.162 c 0,2.804 2.378,5.174 5.175,5.174 h 22.958 c 8.679,7.882 17.674,14.609 26.987,20.168 5.629,3.357 11.443,6.171 17.427,8.51 -8.827,3.901 -18.182,7.121 -28.04,9.567 C 84.207,169.866 6.686,121.905 -14.397,37.574 -13.925,30.49 -12.75,24.127 -10.868,18.496 -8.377,11.037 -4.752,4.872 0,0"
         transform="translate(-91.2985,-72.359597)"
         style="opacity:1;fill:#69bd45;fill-rule:nonzero;stroke:none;stroke-width:1;stroke-linecap:butt;stroke-linejoin:miter;stroke-miterlimit:4;stroke-dasharray:none;stroke-dashoffset:0;paint-order:stroke" />
    </g>
    <g
       id="g23"
       transform="matrix(0.88243365,0,0,-0.88243365,-89.064646,52.064774)">
      <path
         id="path21"
         d="m 0,0 v 8.15 h -31.912 c -2.804,0 -5.175,2.377 -5.175,5.175 v 23.271 c 0,2.803 2.378,5.175 5.175,5.175 2.21,0 4.422,-0.024 6.632,0 1.762,0.018 5.375,-0.454 6.952,0.692 1.075,0.78 0.955,2.45 1.029,3.678 0.17,2.837 0.107,5.7 0.107,8.542 v 28.65 c -1.25,-1.156 -2.496,-2.285 -3.732,-3.356 -8.066,-6.984 -16.041,-11.966 -23.936,-14.939 -7.895,-2.978 -16.159,-3.468 -24.797,-1.469 -7.92,1.832 -14.585,5.517 -20.002,11.076 -5.413,5.545 -9.54,12.568 -12.379,21.064 -0.572,1.708 -1.081,3.481 -1.538,5.308 -1.451,-50.613 20.756,-96.14 59.799,-125.185 5.274,1.838 10.466,4.007 15.572,6.522 C -18.66,-12.947 -9.259,-7.061 0,0"
         transform="translate(51.821471,-38.4245)"
         style="opacity:1;fill:#69bd45;fill-rule:nonzero;stroke:none;stroke-width:1;stroke-linecap:butt;stroke-linejoin:miter;stroke-miterlimit:4;stroke-dasharray:none;stroke-dashoffset:0;paint-order:stroke" />
    </g>
    <g
       id="g27"
       transform="matrix(0.88243365,0,0,-0.88243365,75.358926,-79.607917)">
      <path
         id="path25"
         d="m 0,0 v -7.534 c 22.11,-1.63 44.803,-9.224 53.12,-32.024 1.127,-3.09 1.822,-6.318 2.134,-9.587 4.978,3.43 9.99,6.223 15.035,8.363 9.558,4.058 19.545,4.884 29.961,2.474 7.687,-1.779 14.387,-5.286 20.095,-10.527 0.335,-0.307 0.651,-0.641 0.976,-0.96 C 109.927,-12.828 84.601,18.189 49.078,37.314 46.355,35.939 43.659,34.489 41.007,32.91 26.678,24.355 13.009,13.38 0,0"
         transform="translate(-60.6605,6.2405)"
         style="opacity:1;fill:#69bd45;fill-rule:nonzero;stroke:none;stroke-width:1;stroke-linecap:butt;stroke-linejoin:miter;stroke-miterlimit:4;stroke-dasharray:none;stroke-dashoffset:0;paint-order:stroke" />
    </g>
  </g>
</svg>
